{"title":"The Verve - A Northern Soul 24-96 vinyl rip","uid":8540495,"size":1435601747,"categoryP":"audio","categoryS":"flac","magnet":"?xt=urn:btih:d389b87d71a9c71369617f512185a808b5ff1242&amp;dn=The+Verve+-+A+Northern+Soul+24-96+vinyl+rip&amp;tr=udp%3A%2F%2Ftracker.openbittorrent.com%3A80&amp;tr=udp%3A%2F%2Fopen.demonii.com%3A1337&amp;tr=udp%3A%2F%2Ftracker.coppersurfer.tk%3A6969&amp;tr=udp%3A%2F%2Fexodus.desync.com%3A6969","seeders":1,"leechers":0,"uploader":"ziz4rd","files":18,"time":1370371506,"description":"Analyzed: The Verve / A Northern Soul\n--------------------------------------------------------------------------------\n\nDR         Peak         RMS     Duration Track\n--------------------------------------------------------------------------------\nDR11      -4.17 dB   -17.18 dB      4:10 01-A New Decade\nDR10      -4.65 dB   -15.62 dB      3:35 02-This Is Music\nDR12      -4.78 dB   -17.75 dB      3:33 03-On Your Own\nDR11      -4.78 dB   -17.33 dB      6:11 04-So It Goes\nDR11      -4.51 dB   -17.17 dB      6:33 05-A Northern Soul\nDR11      -4.78 dB   -16.91 dB      5:11 06-Brainstorm Interlude\nDR12      -5.04 dB   -18.57 dB      6:52 07-Drive You Home\nDR11      -4.19 dB   -17.29 dB      5:27 08-History\nDR10      -5.07 dB   -15.41 dB      5:11 09-No Knock On My Door\nDR10      -5.33 dB   -16.49 dB      5:45 10-Life's An Ocean\nDR11      -4.97 dB   -18.70 dB      5:38 11-Stormy Clouds\nDR11      -4.23 dB   -17.61 dB      6:13 12-Reprise\n--------------------------------------------------------------------------------\n\nNumber of tracks:  12\nOfficial DR value: DR11\n\nSamplerate:        96000 Hz\nChannels:          2\nBits per sample:   24\nBitrate:           2893 kbps\nCodec:             FLAC","torrent":{"xt":"urn:btih:d389b87d71a9c71369617f512185a808b5ff1242","amp;dn":"The+Verve+-+A+Northern+Soul+24-96+vinyl+rip","amp;tr":["udp%3A%2F%2Ftracker.openbittorrent.com%3A80","udp%3A%2F%2Fopen.demonii.com%3A1337","udp%3A%2F%2Ftracker.coppersurfer.tk%3A6969","udp%3A%2F%2Fexodus.desync.com%3A6969"],"infoHash":"d389b87d71a9c71369617f512185a808b5ff1242","infoHashBuffer":{"type":"Buffer","data":[211,137,184,125,113,169,199,19,105,97,127,81,33,133,168,8,181,255,18,66]},"announce":[],"urlList":[]}}